<svg width="143" height="78" viewBox="0 0 143 78" fill="none" xmlns="http://www.w3.org/2000/svg">
<path d="M0.602 6.114C0.602 5.162 0.816667 4.308 1.246 3.552C1.67533 2.78667 2.25867 2.18933 2.996 1.76C3.74267 1.33067 4.56867 1.116 5.474 1.116C6.538 1.116 7.46667 1.37267 8.26 1.886C9.05333 2.39933 9.632 3.12733 9.996 4.07H8.47C8.19933 3.482 7.80733 3.02933 7.294 2.712C6.79 2.39467 6.18333 2.236 5.474 2.236C4.79267 2.236 4.18133 2.39467 3.64 2.712C3.09867 3.02933 2.674 3.482 2.366 4.07C2.058 4.64867 1.904 5.33 1.904 6.114C1.904 6.88867 2.058 7.57 2.366 8.158C2.674 8.73667 3.09867 9.18467 3.64 9.502C4.18133 9.81933 4.79267 9.978 5.474 9.978C6.18333 9.978 6.79 9.824 7.294 9.516C7.80733 9.19867 8.19933 8.746 8.47 8.158H9.996C9.632 9.09133 9.05333 9.81467 8.26 10.328C7.46667 10.832 6.538 11.084 5.474 11.084C4.56867 11.084 3.74267 10.874 2.996 10.454C2.25867 10.0247 1.67533 9.432 1.246 8.676C0.816667 7.92 0.602 7.066 0.602 6.114ZM15.2385 11.126C14.5198 11.126 13.8665 10.9627 13.2785 10.636C12.6998 10.3093 12.2425 9.84733 11.9065 9.25C11.5798 8.64333 11.4165 7.94333 11.4165 7.15C11.4165 6.366 11.5845 5.67533 11.9205 5.078C12.2658 4.47133 12.7325 4.00933 13.3205 3.692C13.9085 3.36533 14.5665 3.202 15.2945 3.202C16.0225 3.202 16.6805 3.36533 17.2685 3.692C17.8565 4.00933 18.3185 4.46667 18.6545 5.064C18.9998 5.66133 19.1725 6.35667 19.1725 7.15C19.1725 7.94333 18.9951 8.64333 18.6405 9.25C18.2951 9.84733 17.8238 10.3093 17.2265 10.636C16.6291 10.9627 15.9665 11.126 15.2385 11.126ZM15.2385 10.006C15.6958 10.006 16.1251 9.89867 16.5265 9.684C16.9278 9.46933 17.2498 9.14733 17.4925 8.718C17.7445 8.28867 17.8705 7.766 17.8705 7.15C17.8705 6.534 17.7491 6.01133 17.5065 5.582C17.2638 5.15267 16.9465 4.83533 16.5545 4.63C16.1625 4.41533 15.7378 4.308 15.2805 4.308C14.8138 4.308 14.3845 4.41533 13.9925 4.63C13.6098 4.83533 13.3018 5.15267 13.0685 5.582C12.8351 6.01133 12.7185 6.534 12.7185 7.15C12.7185 7.77533 12.8305 8.30267 13.0545 8.732C13.2878 9.16133 13.5958 9.48333 13.9785 9.698C14.3611 9.90333 14.7811 10.006 15.2385 10.006ZM24.5855 3.188C25.5189 3.188 26.2749 3.47267 26.8535 4.042C27.4322 4.602 27.7215 5.414 27.7215 6.478V11H26.4615V6.66C26.4615 5.89467 26.2702 5.31133 25.8875 4.91C25.5049 4.49933 24.9822 4.294 24.3195 4.294C23.6475 4.294 23.1109 4.504 22.7095 4.924C22.3175 5.344 22.1215 5.95533 22.1215 6.758V11H20.8475V3.328H22.1215V4.42C22.3735 4.028 22.7142 3.72467 23.1435 3.51C23.5822 3.29533 24.0629 3.188 24.5855 3.188ZM32.5186 11.126C31.9306 11.126 31.4033 11.028 30.9366 10.832C30.4699 10.6267 30.1013 10.3467 29.8306 9.992C29.5599 9.628 29.4106 9.21267 29.3826 8.746H30.6986C30.7359 9.12867 30.9133 9.44133 31.2306 9.684C31.5573 9.92667 31.9819 10.048 32.5046 10.048C32.9899 10.048 33.3726 9.94067 33.6526 9.726C33.9326 9.51133 34.0726 9.24067 34.0726 8.914C34.0726 8.578 33.9233 8.33067 33.6246 8.172C33.3259 8.004 32.8639 7.84067 32.2386 7.682C31.6693 7.53267 31.2026 7.38333 30.8386 7.234C30.4839 7.07533 30.1759 6.84667 29.9146 6.548C29.6626 6.24 29.5366 5.83867 29.5366 5.344C29.5366 4.952 29.6533 4.59267 29.8866 4.266C30.1199 3.93933 30.4513 3.68267 30.8806 3.496C31.3099 3.3 31.7999 3.202 32.3506 3.202C33.1999 3.202 33.8859 3.41667 34.4086 3.846C34.9313 4.27533 35.2113 4.86333 35.2486 5.61H33.9746C33.9466 5.20867 33.7833 4.88667 33.4846 4.644C33.1953 4.40133 32.8033 4.28 32.3086 4.28C31.8513 4.28 31.4873 4.378 31.2166 4.574C30.9459 4.77 30.8106 5.02667 30.8106 5.344C30.8106 5.596 30.8899 5.806 31.0486 5.974C31.2166 6.13267 31.4219 6.26333 31.6646 6.366C31.9166 6.45933 32.2619 6.56667 32.7006 6.688C33.2513 6.83733 33.6993 6.98667 34.0446 7.136C34.3899 7.276 34.6839 7.49067 34.9266 7.78C35.1786 8.06933 35.3093 8.44733 35.3186 8.914C35.3186 9.334 35.2019 9.712 34.9686 10.048C34.7353 10.384 34.4039 10.65 33.9746 10.846C33.5546 11.0327 33.0693 11.126 32.5186 11.126ZM38.6711 4.378V8.9C38.6711 9.27333 38.7504 9.53933 38.9091 9.698C39.0677 9.84733 39.3431 9.922 39.7351 9.922H40.6731V11H39.5251C38.8157 11 38.2837 10.8367 37.9291 10.51C37.5744 10.1833 37.3971 9.64667 37.3971 8.9V4.378H36.4031V3.328H37.3971V1.396H38.6711V3.328H40.6731V4.378H38.6711ZM43.4907 4.574C43.7147 4.13533 44.032 3.79467 44.4427 3.552C44.8627 3.30933 45.3713 3.188 45.9687 3.188V4.504H45.6327C44.2047 4.504 43.4907 5.27867 43.4907 6.828V11H42.2167V3.328H43.4907V4.574ZM54.2433 3.328V11H52.9693V9.866C52.7267 10.258 52.386 10.566 51.9473 10.79C51.518 11.0047 51.042 11.112 50.5193 11.112C49.922 11.112 49.3853 10.9907 48.9093 10.748C48.4333 10.496 48.0553 10.1227 47.7753 9.628C47.5047 9.13333 47.3693 8.53133 47.3693 7.822V3.328H48.6293V7.654C48.6293 8.41 48.8207 8.99333 49.2033 9.404C49.586 9.80533 50.1087 10.006 50.7713 10.006C51.4527 10.006 51.9893 9.796 52.3813 9.376C52.7733 8.956 52.9693 8.34467 52.9693 7.542V3.328H54.2433ZM57.0524 2.082C56.8097 2.082 56.6044 1.998 56.4364 1.83C56.2684 1.662 56.1844 1.45667 56.1844 1.214C56.1844 0.971333 56.2684 0.766 56.4364 0.598C56.6044 0.43 56.8097 0.345999 57.0524 0.345999C57.2857 0.345999 57.4817 0.43 57.6404 0.598C57.8084 0.766 57.8924 0.971333 57.8924 1.214C57.8924 1.45667 57.8084 1.662 57.6404 1.83C57.4817 1.998 57.2857 2.082 57.0524 2.082ZM57.6684 3.328V11H56.3944V3.328H57.6684ZM63.5777 3.188C64.5111 3.188 65.2671 3.47267 65.8457 4.042C66.4244 4.602 66.7137 5.414 66.7137 6.478V11H65.4537V6.66C65.4537 5.89467 65.2624 5.31133 64.8797 4.91C64.4971 4.49933 63.9744 4.294 63.3117 4.294C62.6397 4.294 62.1031 4.504 61.7017 4.924C61.3097 5.344 61.1137 5.95533 61.1137 6.758V11H59.8397V3.328H61.1137V4.42C61.3657 4.028 61.7064 3.72467 62.1357 3.51C62.5744 3.29533 63.0551 3.188 63.5777 3.188ZM68.3188 7.136C68.3188 6.352 68.4775 5.666 68.7948 5.078C69.1121 4.48067 69.5461 4.01867 70.0968 3.692C70.6568 3.36533 71.2821 3.202 71.9728 3.202C72.5701 3.202 73.1255 3.342 73.6388 3.622C74.1521 3.89267 74.5441 4.252 74.8148 4.7V0.64H76.1028V11H74.8148V9.558C74.5628 10.0153 74.1895 10.3933 73.6948 10.692C73.2001 10.9813 72.6215 11.126 71.9588 11.126C71.2775 11.126 70.6568 10.958 70.0968 10.622C69.5461 10.286 69.1121 9.81467 68.7948 9.208C68.4775 8.60133 68.3188 7.91067 68.3188 7.136ZM74.8148 7.15C74.8148 6.57133 74.6981 6.06733 74.4648 5.638C74.2315 5.20867 73.9141 4.882 73.5128 4.658C73.1208 4.42467 72.6868 4.308 72.2108 4.308C71.7348 4.308 71.3008 4.42 70.9088 4.644C70.5168 4.868 70.2041 5.19467 69.9708 5.624C69.7375 6.05333 69.6208 6.55733 69.6208 7.136C69.6208 7.724 69.7375 8.23733 69.9708 8.676C70.2041 9.10533 70.5168 9.43667 70.9088 9.67C71.3008 9.894 71.7348 10.006 72.2108 10.006C72.6868 10.006 73.1208 9.894 73.5128 9.67C73.9141 9.43667 74.2315 9.10533 74.4648 8.676C74.6981 8.23733 74.8148 7.72867 74.8148 7.15ZM81.6017 11.126C80.8831 11.126 80.2297 10.9627 79.6417 10.636C79.0631 10.3093 78.6057 9.84733 78.2697 9.25C77.9431 8.64333 77.7797 7.94333 77.7797 7.15C77.7797 6.366 77.9477 5.67533 78.2837 5.078C78.6291 4.47133 79.0957 4.00933 79.6837 3.692C80.2717 3.36533 80.9297 3.202 81.6577 3.202C82.3857 3.202 83.0437 3.36533 83.6317 3.692C84.2197 4.00933 84.6817 4.46667 85.0177 5.064C85.3631 5.66133 85.5357 6.35667 85.5357 7.15C85.5357 7.94333 85.3584 8.64333 85.0037 9.25C84.6584 9.84733 84.1871 10.3093 83.5897 10.636C82.9924 10.9627 82.3297 11.126 81.6017 11.126ZM81.6017 10.006C82.0591 10.006 82.4884 9.89867 82.8897 9.684C83.2911 9.46933 83.6131 9.14733 83.8557 8.718C84.1077 8.28867 84.2337 7.766 84.2337 7.15C84.2337 6.534 84.1124 6.01133 83.8697 5.582C83.6271 5.15267 83.3097 4.83533 82.9177 4.63C82.5257 4.41533 82.1011 4.308 81.6437 4.308C81.1771 4.308 80.7477 4.41533 80.3557 4.63C79.9731 4.83533 79.6651 5.15267 79.4317 5.582C79.1984 6.01133 79.0817 6.534 79.0817 7.15C79.0817 7.77533 79.1937 8.30267 79.4177 8.732C79.6511 9.16133 79.9591 9.48333 80.3417 9.698C80.7244 9.90333 81.1444 10.006 81.6017 10.006ZM97.7472 3.328V11H96.4732V9.866C96.2306 10.258 95.8899 10.566 95.4512 10.79C95.0219 11.0047 94.5459 11.112 94.0232 11.112C93.4259 11.112 92.8892 10.9907 92.4132 10.748C91.9372 10.496 91.5592 10.1227 91.2792 9.628C91.0086 9.13333 90.8732 8.53133 90.8732 7.822V3.328H92.1332V7.654C92.1332 8.41 92.3246 8.99333 92.7072 9.404C93.0899 9.80533 93.6126 10.006 94.2752 10.006C94.9566 10.006 95.4932 9.796 95.8852 9.376C96.2772 8.956 96.4732 8.34467 96.4732 7.542V3.328H97.7472ZM109.124 3.188C109.722 3.188 110.254 3.314 110.72 3.566C111.187 3.80867 111.556 4.17733 111.826 4.672C112.097 5.16667 112.232 5.76867 112.232 6.478V11H110.972V6.66C110.972 5.89467 110.781 5.31133 110.398 4.91C110.025 4.49933 109.516 4.294 108.872 4.294C108.21 4.294 107.682 4.50867 107.29 4.938C106.898 5.358 106.702 5.96933 106.702 6.772V11H105.442V6.66C105.442 5.89467 105.251 5.31133 104.868 4.91C104.495 4.49933 103.986 4.294 103.342 4.294C102.68 4.294 102.152 4.50867 101.76 4.938C101.368 5.358 101.172 5.96933 101.172 6.772V11H99.8983V3.328H101.172V4.434C101.424 4.03267 101.76 3.72467 102.18 3.51C102.61 3.29533 103.081 3.188 103.594 3.188C104.238 3.188 104.808 3.33267 105.302 3.622C105.797 3.91133 106.166 4.336 106.408 4.896C106.623 4.35467 106.978 3.93467 107.472 3.636C107.967 3.33733 108.518 3.188 109.124 3.188ZM113.846 7.136C113.846 6.352 114.005 5.666 114.322 5.078C114.639 4.48067 115.073 4.01867 115.624 3.692C116.184 3.36533 116.805 3.202 117.486 3.202C118.158 3.202 118.741 3.34667 119.236 3.636C119.731 3.92533 120.099 4.28933 120.342 4.728V3.328H121.63V11H120.342V9.572C120.09 10.02 119.712 10.3933 119.208 10.692C118.713 10.9813 118.135 11.126 117.472 11.126C116.791 11.126 116.175 10.958 115.624 10.622C115.073 10.286 114.639 9.81467 114.322 9.208C114.005 8.60133 113.846 7.91067 113.846 7.136ZM120.342 7.15C120.342 6.57133 120.225 6.06733 119.992 5.638C119.759 5.20867 119.441 4.882 119.04 4.658C118.648 4.42467 118.214 4.308 117.738 4.308C117.262 4.308 116.828 4.42 116.436 4.644C116.044 4.868 115.731 5.19467 115.498 5.624C115.265 6.05333 115.148 6.55733 115.148 7.136C115.148 7.724 115.265 8.23733 115.498 8.676C115.731 9.10533 116.044 9.43667 116.436 9.67C116.828 9.894 117.262 10.006 117.738 10.006C118.214 10.006 118.648 9.894 119.04 9.67C119.441 9.43667 119.759 9.10533 119.992 8.676C120.225 8.23733 120.342 7.72867 120.342 7.15ZM0.602 28.136C0.602 27.352 0.760667 26.666 1.078 26.078C1.39533 25.4807 1.82933 25.0187 2.38 24.692C2.94 24.3653 3.56067 24.202 4.242 24.202C4.914 24.202 5.49733 24.3467 5.992 24.636C6.48667 24.9253 6.85533 25.2893 7.098 25.728V24.328H8.386V32H7.098V30.572C6.846 31.02 6.468 31.3933 5.964 31.692C5.46933 31.9813 4.89067 32.126 4.228 32.126C3.54667 32.126 2.93067 31.958 2.38 31.622C1.82933 31.286 1.39533 30.8147 1.078 30.208C0.760667 29.6013 0.602 28.9107 0.602 28.136ZM7.098 28.15C7.098 27.5713 6.98133 27.0673 6.748 26.638C6.51467 26.2087 6.19733 25.882 5.796 25.658C5.404 25.4247 4.97 25.308 4.494 25.308C4.018 25.308 3.584 25.42 3.192 25.644C2.8 25.868 2.48733 26.1947 2.254 26.624C2.02067 27.0533 1.904 27.5573 1.904 28.136C1.904 28.724 2.02067 29.2373 2.254 29.676C2.48733 30.1053 2.8 30.4367 3.192 30.67C3.584 30.894 4.018 31.006 4.494 31.006C4.97 31.006 5.404 30.894 5.796 30.67C6.19733 30.4367 6.51467 30.1053 6.748 29.676C6.98133 29.2373 7.098 28.7287 7.098 28.15ZM11.8129 25.742C12.0649 25.3033 12.4383 24.9393 12.9329 24.65C13.4369 24.3513 14.0203 24.202 14.6829 24.202C15.3643 24.202 15.9803 24.3653 16.5309 24.692C17.0909 25.0187 17.5296 25.4807 17.8469 26.078C18.1643 26.666 18.3229 27.352 18.3229 28.136C18.3229 28.9107 18.1643 29.6013 17.8469 30.208C17.5296 30.8147 17.0909 31.286 16.5309 31.622C15.9803 31.958 15.3643 32.126 14.6829 32.126C14.0296 32.126 13.4509 31.9813 12.9469 31.692C12.4523 31.3933 12.0743 31.0247 11.8129 30.586V35.64H10.5389V24.328H11.8129V25.742ZM17.0209 28.136C17.0209 27.5573 16.9043 27.0533 16.6709 26.624C16.4376 26.1947 16.1203 25.868 15.7189 25.644C15.3269 25.42 14.8929 25.308 14.4169 25.308C13.9503 25.308 13.5163 25.4247 13.1149 25.658C12.7229 25.882 12.4056 26.2133 12.1629 26.652C11.9296 27.0813 11.8129 27.5807 11.8129 28.15C11.8129 28.7287 11.9296 29.2373 12.1629 29.676C12.4056 30.1053 12.7229 30.4367 13.1149 30.67C13.5163 30.894 13.9503 31.006 14.4169 31.006C14.8929 31.006 15.3269 30.894 15.7189 30.67C16.1203 30.4367 16.4376 30.1053 16.6709 29.676C16.9043 29.2373 17.0209 28.724 17.0209 28.136ZM21.2739 21.64V32H19.9999V21.64H21.2739ZM24.1032 23.082C23.8605 23.082 23.6552 22.998 23.4872 22.83C23.3192 22.662 23.2352 22.4567 23.2352 22.214C23.2352 21.9713 23.3192 21.766 23.4872 21.598C23.6552 21.43 23.8605 21.346 24.1032 21.346C24.3365 21.346 24.5325 21.43 24.6912 21.598C24.8592 21.766 24.9432 21.9713 24.9432 22.214C24.9432 22.4567 24.8592 22.662 24.6912 22.83C24.5325 22.998 24.3365 23.082 24.1032 23.082ZM24.7192 24.328V32H23.4452V24.328H24.7192ZM26.4145 28.15C26.4145 27.3567 26.5732 26.666 26.8905 26.078C27.2078 25.4807 27.6465 25.0187 28.2065 24.692C28.7758 24.3653 29.4245 24.202 30.1525 24.202C31.0952 24.202 31.8698 24.4307 32.4765 24.888C33.0925 25.3453 33.4985 25.98 33.6945 26.792H32.3225C32.1918 26.3253 31.9352 25.9567 31.5525 25.686C31.1792 25.4153 30.7125 25.28 30.1525 25.28C29.4245 25.28 28.8365 25.532 28.3885 26.036C27.9405 26.5307 27.7165 27.2353 27.7165 28.15C27.7165 29.074 27.9405 29.788 28.3885 30.292C28.8365 30.796 29.4245 31.048 30.1525 31.048C30.7125 31.048 31.1792 30.9173 31.5525 30.656C31.9258 30.3947 32.1825 30.0213 32.3225 29.536H33.6945C33.4892 30.32 33.0785 30.95 32.4625 31.426C31.8465 31.8927 31.0765 32.126 30.1525 32.126C29.4245 32.126 28.7758 31.9627 28.2065 31.636C27.6465 31.3093 27.2078 30.8473 26.8905 30.25C26.5732 29.6527 26.4145 28.9527 26.4145 28.15ZM34.9184 28.136C34.9184 27.352 35.0771 26.666 35.3944 26.078C35.7117 25.4807 36.1457 25.0187 36.6964 24.692C37.2564 24.3653 37.8771 24.202 38.5584 24.202C39.2304 24.202 39.8137 24.3467 40.3084 24.636C40.8031 24.9253 41.1717 25.2893 41.4144 25.728V24.328H42.7024V32H41.4144V30.572C41.1624 31.02 40.7844 31.3933 40.2804 31.692C39.7857 31.9813 39.2071 32.126 38.5444 32.126C37.8631 32.126 37.2471 31.958 36.6964 31.622C36.1457 31.286 35.7117 30.8147 35.3944 30.208C35.0771 29.6013 34.9184 28.9107 34.9184 28.136ZM41.4144 28.15C41.4144 27.5713 41.2977 27.0673 41.0644 26.638C40.8311 26.2087 40.5137 25.882 40.1124 25.658C39.7204 25.4247 39.2864 25.308 38.8104 25.308C38.3344 25.308 37.9004 25.42 37.5084 25.644C37.1164 25.868 36.8037 26.1947 36.5704 26.624C36.3371 27.0533 36.2204 27.5573 36.2204 28.136C36.2204 28.724 36.3371 29.2373 36.5704 29.676C36.8037 30.1053 37.1164 30.4367 37.5084 30.67C37.9004 30.894 38.3344 31.006 38.8104 31.006C39.2864 31.006 39.7204 30.894 40.1124 30.67C40.5137 30.4367 40.8311 30.1053 41.0644 29.676C41.2977 29.2373 41.4144 28.7287 41.4144 28.15ZM48.1173 31.048C48.6773 31.048 49.144 30.9173 49.5173 30.656C49.8907 30.3947 50.1473 30.0213 50.2873 29.536H51.6593C51.4727 30.264 51.104 30.8613 50.5533 31.328C50.012 31.7853 49.3307 32.0467 48.5093 32.112V32.812C49.06 32.8027 49.4987 32.9193 49.8253 33.162C50.152 33.4047 50.3153 33.75 50.3153 34.198C50.3153 34.6367 50.1567 34.9867 49.8393 35.248C49.522 35.5093 49.1113 35.64 48.6073 35.64H46.9973V34.814H48.3553C48.6633 34.814 48.8873 34.7673 49.0273 34.674C49.1767 34.5807 49.2513 34.422 49.2513 34.198C49.2513 33.9833 49.1767 33.8293 49.0273 33.736C48.8873 33.6427 48.6633 33.596 48.3553 33.596H47.6553V32.098C47.0113 32.0327 46.442 31.832 45.9473 31.496C45.4527 31.1507 45.0653 30.6933 44.7853 30.124C44.5147 29.5453 44.3793 28.8873 44.3793 28.15C44.3793 27.3567 44.538 26.666 44.8553 26.078C45.1727 25.4807 45.6113 25.0187 46.1713 24.692C46.7407 24.3653 47.3893 24.202 48.1173 24.202C49.06 24.202 49.8347 24.4307 50.4413 24.888C51.0573 25.3453 51.4633 25.98 51.6593 26.792H50.2873C50.1567 26.3253 49.9 25.9567 49.5173 25.686C49.144 25.4153 48.6773 25.28 48.1173 25.28C47.3893 25.28 46.8013 25.532 46.3533 26.036C45.9053 26.5307 45.6813 27.2353 45.6813 28.15C45.6813 29.074 45.9053 29.788 46.3533 30.292C46.8013 30.796 47.3893 31.048 48.1173 31.048ZM52.8833 28.136C52.8833 27.352 53.0419 26.666 53.3593 26.078C53.6766 25.4807 54.1106 25.0187 54.6613 24.692C55.2213 24.3653 55.8419 24.202 56.5233 24.202C57.1953 24.202 57.7786 24.3467 58.2733 24.636C58.7679 24.9253 59.1366 25.2893 59.3793 25.728V24.328H60.6673V32H59.3793V30.572C59.1273 31.02 58.7493 31.3933 58.2453 31.692C57.7506 31.9813 57.1719 32.126 56.5093 32.126C55.8279 32.126 55.2119 31.958 54.6613 31.622C54.1106 31.286 53.6766 30.8147 53.3593 30.208C53.0419 29.6013 52.8833 28.9107 52.8833 28.136ZM59.3793 28.15C59.3793 27.5713 59.2626 27.0673 59.0293 26.638C58.7959 26.2087 58.4786 25.882 58.0773 25.658C57.6853 25.4247 57.2513 25.308 56.7753 25.308C56.2993 25.308 55.8653 25.42 55.4733 25.644C55.0813 25.868 54.7686 26.1947 54.5353 26.624C54.3019 27.0533 54.1853 27.5573 54.1853 28.136C54.1853 28.724 54.3019 29.2373 54.5353 29.676C54.7686 30.1053 55.0813 30.4367 55.4733 30.67C55.8653 30.894 56.2993 31.006 56.7753 31.006C57.2513 31.006 57.6853 30.894 58.0773 30.67C58.4786 30.4367 58.7959 30.1053 59.0293 29.676C59.2626 29.2373 59.3793 28.7287 59.3793 28.15ZM54.9693 23.502C55.0346 23.026 55.1886 22.662 55.4313 22.41C55.6833 22.158 55.9959 22.032 56.3693 22.032C56.5466 22.032 56.6959 22.0647 56.8173 22.13C56.9479 22.186 57.1019 22.27 57.2793 22.382C57.4099 22.4753 57.5266 22.55 57.6293 22.606C57.7319 22.6527 57.8439 22.676 57.9653 22.676C58.1239 22.676 58.2593 22.6247 58.3713 22.522C58.4833 22.4193 58.5533 22.27 58.5813 22.074H59.3093C59.2533 22.5407 59.0993 22.9 58.8473 23.152C58.5953 23.404 58.2826 23.53 57.9093 23.53C57.7319 23.53 57.5733 23.502 57.4333 23.446C57.3026 23.3807 57.1533 23.2873 56.9853 23.166C56.8359 23.0727 56.7146 23.0027 56.6213 22.956C56.5373 22.9093 56.4346 22.886 56.3133 22.886C56.1546 22.886 56.0193 22.9373 55.9073 23.04C55.8046 23.1427 55.7393 23.2967 55.7113 23.502H54.9693ZM66.1662 32.126C65.4475 32.126 64.7942 31.9627 64.2062 31.636C63.6275 31.3093 63.1702 30.8473 62.8342 30.25C62.5075 29.6433 62.3442 28.9433 62.3442 28.15C62.3442 27.366 62.5122 26.6753 62.8482 26.078C63.1935 25.4713 63.6602 25.0093 64.2482 24.692C64.8362 24.3653 65.4942 24.202 66.2222 24.202C66.9502 24.202 67.6082 24.3653 68.1962 24.692C68.7842 25.0093 69.2462 25.4667 69.5822 26.064C69.9275 26.6613 70.1002 27.3567 70.1002 28.15C70.1002 28.9433 69.9229 29.6433 69.5682 30.25C69.2229 30.8473 68.7515 31.3093 68.1542 31.636C67.5569 31.9627 66.8942 32.126 66.1662 32.126ZM66.1662 31.006C66.6235 31.006 67.0529 30.8987 67.4542 30.684C67.8555 30.4693 68.1775 30.1473 68.4202 29.718C68.6722 29.2887 68.7982 28.766 68.7982 28.15C68.7982 27.534 68.6769 27.0113 68.4342 26.582C68.1915 26.1527 67.8742 25.8353 67.4822 25.63C67.0902 25.4153 66.6655 25.308 66.2082 25.308C65.7415 25.308 65.3122 25.4153 64.9202 25.63C64.5375 25.8353 64.2295 26.1527 63.9962 26.582C63.7629 27.0113 63.6462 27.534 63.6462 28.15C63.6462 28.7753 63.7582 29.3027 63.9822 29.732C64.2155 30.1613 64.5235 30.4833 64.9062 30.698C65.2889 30.9033 65.7089 31.006 66.1662 31.006ZM76.1657 23.082C75.923 23.082 75.7177 22.998 75.5497 22.83C75.3817 22.662 75.2977 22.4567 75.2977 22.214C75.2977 21.9713 75.3817 21.766 75.5497 21.598C75.7177 21.43 75.923 21.346 76.1657 21.346C76.399 21.346 76.595 21.43 76.7537 21.598C76.9217 21.766 77.0057 21.9713 77.0057 22.214C77.0057 22.4567 76.9217 22.662 76.7537 22.83C76.595 22.998 76.399 23.082 76.1657 23.082ZM76.7817 24.328V32H75.5077V24.328H76.7817ZM82.691 24.188C83.6243 24.188 84.3803 24.4727 84.959 25.042C85.5377 25.602 85.827 26.414 85.827 27.478V32H84.567V27.66C84.567 26.8947 84.3757 26.3113 83.993 25.91C83.6103 25.4993 83.0877 25.294 82.425 25.294C81.753 25.294 81.2163 25.504 80.815 25.924C80.423 26.344 80.227 26.9553 80.227 27.758V32H78.953V24.328H80.227V25.42C80.479 25.028 80.8197 24.7247 81.249 24.51C81.6877 24.2953 82.1683 24.188 82.691 24.188ZM89.4621 25.378V29.9C89.4621 30.2733 89.5414 30.5393 89.7001 30.698C89.8587 30.8473 90.1341 30.922 90.5261 30.922H91.4641V32H90.3161C89.6067 32 89.0747 31.8367 88.7201 31.51C88.3654 31.1833 88.1881 30.6467 88.1881 29.9V25.378H87.1941V24.328H88.1881V22.396H89.4621V24.328H91.4641V25.378H89.4621ZM100.008 27.87C100.008 28.1127 99.9937 28.3693 99.9657 28.64H93.8337C93.8804 29.396 94.137 29.9887 94.6037 30.418C95.0797 30.838 95.6537 31.048 96.3257 31.048C96.8764 31.048 97.3337 30.922 97.6977 30.67C98.071 30.4087 98.3324 30.0633 98.4817 29.634H99.8537C99.6484 30.3713 99.2377 30.9733 98.6217 31.44C98.0057 31.8973 97.2404 32.126 96.3257 32.126C95.5977 32.126 94.9444 31.9627 94.3657 31.636C93.7964 31.3093 93.3484 30.8473 93.0217 30.25C92.695 29.6433 92.5317 28.9433 92.5317 28.15C92.5317 27.3567 92.6904 26.6613 93.0077 26.064C93.325 25.4667 93.7684 25.0093 94.3377 24.692C94.9164 24.3653 95.579 24.202 96.3257 24.202C97.0537 24.202 97.6977 24.3607 98.2577 24.678C98.8177 24.9953 99.247 25.434 99.5457 25.994C99.8537 26.5447 100.008 27.17 100.008 27.87ZM98.6917 27.604C98.6917 27.1187 98.5844 26.7033 98.3697 26.358C98.155 26.0033 97.861 25.7373 97.4877 25.56C97.1237 25.3733 96.7177 25.28 96.2697 25.28C95.6257 25.28 95.075 25.4853 94.6177 25.896C94.1697 26.3067 93.913 26.876 93.8477 27.604H98.6917ZM104.853 24.202C105.516 24.202 106.095 24.3467 106.589 24.636C107.093 24.9253 107.467 25.2893 107.709 25.728V24.328H108.997V32.168C108.997 32.868 108.848 33.4887 108.549 34.03C108.251 34.5807 107.821 35.01 107.261 35.318C106.711 35.626 106.067 35.78 105.329 35.78C104.321 35.78 103.481 35.542 102.809 35.066C102.137 34.59 101.741 33.9413 101.619 33.12H102.879C103.019 33.5867 103.309 33.96 103.747 34.24C104.186 34.5293 104.713 34.674 105.329 34.674C106.029 34.674 106.599 34.4547 107.037 34.016C107.485 33.5773 107.709 32.9613 107.709 32.168V30.558C107.457 31.006 107.084 31.3793 106.589 31.678C106.095 31.9767 105.516 32.126 104.853 32.126C104.172 32.126 103.551 31.958 102.991 31.622C102.441 31.286 102.007 30.8147 101.689 30.208C101.372 29.6013 101.213 28.9107 101.213 28.136C101.213 27.352 101.372 26.666 101.689 26.078C102.007 25.4807 102.441 25.0187 102.991 24.692C103.551 24.3653 104.172 24.202 104.853 24.202ZM107.709 28.15C107.709 27.5713 107.593 27.0673 107.359 26.638C107.126 26.2087 106.809 25.882 106.407 25.658C106.015 25.4247 105.581 25.308 105.105 25.308C104.629 25.308 104.195 25.42 103.803 25.644C103.411 25.868 103.099 26.1947 102.865 26.624C102.632 27.0533 102.515 27.5573 102.515 28.136C102.515 28.724 102.632 29.2373 102.865 29.676C103.099 30.1053 103.411 30.4367 103.803 30.67C104.195 30.894 104.629 31.006 105.105 31.006C105.581 31.006 106.015 30.894 106.407 30.67C106.809 30.4367 107.126 30.1053 107.359 29.676C107.593 29.2373 107.709 28.7287 107.709 28.15ZM112.424 25.574C112.648 25.1353 112.966 24.7947 113.376 24.552C113.796 24.3093 114.305 24.188 114.902 24.188V25.504H114.566C113.138 25.504 112.424 26.2787 112.424 27.828V32H111.15V24.328H112.424V25.574ZM115.897 28.136C115.897 27.352 116.056 26.666 116.373 26.078C116.69 25.4807 117.124 25.0187 117.675 24.692C118.235 24.3653 118.856 24.202 119.537 24.202C120.209 24.202 120.792 24.3467 121.287 24.636C121.782 24.9253 122.15 25.2893 122.393 25.728V24.328H123.681V32H122.393V30.572C122.141 31.02 121.763 31.3933 121.259 31.692C120.764 31.9813 120.186 32.126 119.523 32.126C118.842 32.126 118.226 31.958 117.675 31.622C117.124 31.286 116.69 30.8147 116.373 30.208C116.056 29.6013 115.897 28.9107 115.897 28.136ZM122.393 28.15C122.393 27.5713 122.276 27.0673 122.043 26.638C121.81 26.2087 121.492 25.882 121.091 25.658C120.699 25.4247 120.265 25.308 119.789 25.308C119.313 25.308 118.879 25.42 118.487 25.644C118.095 25.868 117.782 26.1947 117.549 26.624C117.316 27.0533 117.199 27.5573 117.199 28.136C117.199 28.724 117.316 29.2373 117.549 29.676C117.782 30.1053 118.095 30.4367 118.487 30.67C118.879 30.894 119.313 31.006 119.789 31.006C120.265 31.006 120.699 30.894 121.091 30.67C121.492 30.4367 121.81 30.1053 122.043 29.676C122.276 29.2373 122.393 28.7287 122.393 28.15ZM125.358 28.136C125.358 27.352 125.517 26.666 125.834 26.078C126.151 25.4807 126.585 25.0187 127.136 24.692C127.696 24.3653 128.321 24.202 129.012 24.202C129.609 24.202 130.165 24.342 130.678 24.622C131.191 24.8927 131.583 25.252 131.854 25.7V21.64H133.142V32H131.854V30.558C131.602 31.0153 131.229 31.3933 130.734 31.692C130.239 31.9813 129.661 32.126 128.998 32.126C128.317 32.126 127.696 31.958 127.136 31.622C126.585 31.286 126.151 30.8147 125.834 30.208C125.517 29.6013 125.358 28.9107 125.358 28.136ZM131.854 28.15C131.854 27.5713 131.737 27.0673 131.504 26.638C131.271 26.2087 130.953 25.882 130.552 25.658C130.16 25.4247 129.726 25.308 129.25 25.308C128.774 25.308 128.34 25.42 127.948 25.644C127.556 25.868 127.243 26.1947 127.01 26.624C126.777 27.0533 126.66 27.5573 126.66 28.136C126.66 28.724 126.777 29.2373 127.01 29.676C127.243 30.1053 127.556 30.4367 127.948 30.67C128.34 30.894 128.774 31.006 129.25 31.006C129.726 31.006 130.16 30.894 130.552 30.67C130.953 30.4367 131.271 30.1053 131.504 29.676C131.737 29.2373 131.854 28.7287 131.854 28.15ZM134.819 28.136C134.819 27.352 134.977 26.666 135.295 26.078C135.612 25.4807 136.046 25.0187 136.597 24.692C137.157 24.3653 137.777 24.202 138.459 24.202C139.131 24.202 139.714 24.3467 140.209 24.636C140.703 24.9253 141.072 25.2893 141.315 25.728V24.328H142.603V32H141.315V30.572C141.063 31.02 140.685 31.3933 140.181 31.692C139.686 31.9813 139.107 32.126 138.445 32.126C137.763 32.126 137.147 31.958 136.597 31.622C136.046 31.286 135.612 30.8147 135.295 30.208C134.977 29.6013 134.819 28.9107 134.819 28.136ZM141.315 28.15C141.315 27.5713 141.198 27.0673 140.965 26.638C140.731 26.2087 140.414 25.882 140.013 25.658C139.621 25.4247 139.187 25.308 138.711 25.308C138.235 25.308 137.801 25.42 137.409 25.644C137.017 25.868 136.704 26.1947 136.471 26.624C136.237 27.0533 136.121 27.5573 136.121 28.136C136.121 28.724 136.237 29.2373 136.471 29.676C136.704 30.1053 137.017 30.4367 137.409 30.67C137.801 30.894 138.235 31.006 138.711 31.006C139.187 31.006 139.621 30.894 140.013 30.67C140.414 30.4367 140.731 30.1053 140.965 29.676C141.198 29.2373 141.315 28.7287 141.315 28.15ZM0.602 49.15C0.602 48.3567 0.760667 47.666 1.078 47.078C1.39533 46.4807 1.834 46.0187 2.394 45.692C2.96333 45.3653 3.612 45.202 4.34 45.202C5.28267 45.202 6.05733 45.4307 6.664 45.888C7.28 46.3453 7.686 46.98 7.882 47.792H6.51C6.37933 47.3253 6.12267 46.9567 5.74 46.686C5.36667 46.4153 4.9 46.28 4.34 46.28C3.612 46.28 3.024 46.532 2.576 47.036C2.128 47.5307 1.904 48.2353 1.904 49.15C1.904 50.074 2.128 50.788 2.576 51.292C3.024 51.796 3.612 52.048 4.34 52.048C4.9 52.048 5.36667 51.9173 5.74 51.656C6.11333 51.3947 6.37 51.0213 6.51 50.536H7.882C7.67667 51.32 7.266 51.95 6.65 52.426C6.034 52.8927 5.264 53.126 4.34 53.126C3.612 53.126 2.96333 52.9627 2.394 52.636C1.834 52.3093 1.39533 51.8473 1.078 51.25C0.760667 50.6527 0.602 49.9527 0.602 49.15ZM12.9279 53.126C12.2092 53.126 11.5559 52.9627 10.9679 52.636C10.3892 52.3093 9.93191 51.8473 9.59591 51.25C9.26924 50.6433 9.10591 49.9433 9.10591 49.15C9.10591 48.366 9.27391 47.6753 9.60991 47.078C9.95524 46.4713 10.4219 46.0093 11.0099 45.692C11.5979 45.3653 12.2559 45.202 12.9839 45.202C13.7119 45.202 14.3699 45.3653 14.9579 45.692C15.5459 46.0093 16.0079 46.4667 16.3439 47.064C16.6892 47.6613 16.8619 48.3567 16.8619 49.15C16.8619 49.9433 16.6846 50.6433 16.3299 51.25C15.9846 51.8473 15.5132 52.3093 14.9159 52.636C14.3186 52.9627 13.6559 53.126 12.9279 53.126ZM12.9279 52.006C13.3852 52.006 13.8146 51.8987 14.2159 51.684C14.6172 51.4693 14.9392 51.1473 15.1819 50.718C15.4339 50.2887 15.5599 49.766 15.5599 49.15C15.5599 48.534 15.4386 48.0113 15.1959 47.582C14.9532 47.1527 14.6359 46.8353 14.2439 46.63C13.8519 46.4153 13.4272 46.308 12.9699 46.308C12.5032 46.308 12.0739 46.4153 11.6819 46.63C11.2992 46.8353 10.9912 47.1527 10.7579 47.582C10.5246 48.0113 10.4079 48.534 10.4079 49.15C10.4079 49.7753 10.5199 50.3027 10.7439 50.732C10.9772 51.1613 11.2852 51.4833 11.6679 51.698C12.0506 51.9033 12.4706 52.006 12.9279 52.006ZM27.763 45.188C28.3603 45.188 28.8923 45.314 29.359 45.566C29.8257 45.8087 30.1943 46.1773 30.465 46.672C30.7357 47.1667 30.871 47.7687 30.871 48.478V53H29.611V48.66C29.611 47.8947 29.4197 47.3113 29.037 46.91C28.6637 46.4993 28.155 46.294 27.511 46.294C26.8483 46.294 26.321 46.5087 25.929 46.938C25.537 47.358 25.341 47.9693 25.341 48.772V53H24.081V48.66C24.081 47.8947 23.8897 47.3113 23.507 46.91C23.1337 46.4993 22.625 46.294 21.981 46.294C21.3183 46.294 20.791 46.5087 20.399 46.938C20.007 47.358 19.811 47.9693 19.811 48.772V53H18.537V45.328H19.811V46.434C20.063 46.0327 20.399 45.7247 20.819 45.51C21.2483 45.2953 21.7197 45.188 22.233 45.188C22.877 45.188 23.4463 45.3327 23.941 45.622C24.4357 45.9113 24.8043 46.336 25.047 46.896C25.2617 46.3547 25.6163 45.9347 26.111 45.636C26.6057 45.3373 27.1563 45.188 27.763 45.188ZM36.2172 49.136C36.2172 48.352 36.3759 47.666 36.6932 47.078C37.0106 46.4807 37.4446 46.0187 37.9952 45.692C38.5552 45.3653 39.1759 45.202 39.8572 45.202C40.5292 45.202 41.1126 45.3467 41.6072 45.636C42.1019 45.9253 42.4706 46.2893 42.7132 46.728V45.328H44.0012V53H42.7132V51.572C42.4612 52.02 42.0832 52.3933 41.5792 52.692C41.0846 52.9813 40.5059 53.126 39.8432 53.126C39.1619 53.126 38.5459 52.958 37.9952 52.622C37.4446 52.286 37.0106 51.8147 36.6932 51.208C36.3759 50.6013 36.2172 49.9107 36.2172 49.136ZM42.7132 49.15C42.7132 48.5713 42.5966 48.0673 42.3632 47.638C42.1299 47.2087 41.8126 46.882 41.4112 46.658C41.0192 46.4247 40.5852 46.308 40.1092 46.308C39.6332 46.308 39.1992 46.42 38.8072 46.644C38.4152 46.868 38.1026 47.1947 37.8692 47.624C37.6359 48.0533 37.5192 48.5573 37.5192 49.136C37.5192 49.724 37.6359 50.2373 37.8692 50.676C38.1026 51.1053 38.4152 51.4367 38.8072 51.67C39.1992 51.894 39.6332 52.006 40.1092 52.006C40.5852 52.006 41.0192 51.894 41.4112 51.67C41.8126 51.4367 42.1299 51.1053 42.3632 50.676C42.5966 50.2373 42.7132 49.7287 42.7132 49.15ZM51.1606 46.742C51.4126 46.3033 51.7859 45.9393 52.2806 45.65C52.7846 45.3513 53.3679 45.202 54.0306 45.202C54.7119 45.202 55.3279 45.3653 55.8786 45.692C56.4386 46.0187 56.8773 46.4807 57.1946 47.078C57.5119 47.666 57.6706 48.352 57.6706 49.136C57.6706 49.9107 57.5119 50.6013 57.1946 51.208C56.8773 51.8147 56.4386 52.286 55.8786 52.622C55.3279 52.958 54.7119 53.126 54.0306 53.126C53.3773 53.126 52.7986 52.9813 52.2946 52.692C51.7999 52.3933 51.4219 52.0247 51.1606 51.586V56.64H49.8866V45.328H51.1606V46.742ZM56.3686 49.136C56.3686 48.5573 56.2519 48.0533 56.0186 47.624C55.7853 47.1947 55.4679 46.868 55.0666 46.644C54.6746 46.42 54.2406 46.308 53.7646 46.308C53.2979 46.308 52.8639 46.4247 52.4626 46.658C52.0706 46.882 51.7533 47.2133 51.5106 47.652C51.2773 48.0813 51.1606 48.5807 51.1606 49.15C51.1606 49.7287 51.2773 50.2373 51.5106 50.676C51.7533 51.1053 52.0706 51.4367 52.4626 51.67C52.8639 51.894 53.2979 52.006 53.7646 52.006C54.2406 52.006 54.6746 51.894 55.0666 51.67C55.4679 51.4367 55.7853 51.1053 56.0186 50.676C56.2519 50.2373 56.3686 49.724 56.3686 49.136ZM60.6215 42.64V53H59.3475V42.64H60.6215ZM62.3168 49.136C62.3168 48.352 62.4755 47.666 62.7928 47.078C63.1102 46.4807 63.5442 46.0187 64.0948 45.692C64.6548 45.3653 65.2755 45.202 65.9568 45.202C66.6288 45.202 67.2122 45.3467 67.7068 45.636C68.2015 45.9253 68.5702 46.2893 68.8128 46.728V45.328H70.1008V53H68.8128V51.572C68.5608 52.02 68.1828 52.3933 67.6788 52.692C67.1842 52.9813 66.6055 53.126 65.9428 53.126C65.2615 53.126 64.6455 52.958 64.0948 52.622C63.5442 52.286 63.1102 51.8147 62.7928 51.208C62.4755 50.6013 62.3168 49.9107 62.3168 49.136ZM68.8128 49.15C68.8128 48.5713 68.6962 48.0673 68.4628 47.638C68.2295 47.2087 67.9122 46.882 67.5108 46.658C67.1188 46.4247 66.6848 46.308 66.2088 46.308C65.7328 46.308 65.2988 46.42 64.9068 46.644C64.5148 46.868 64.2022 47.1947 63.9688 47.624C63.7355 48.0533 63.6188 48.5573 63.6188 49.136C63.6188 49.724 63.7355 50.2373 63.9688 50.676C64.2022 51.1053 64.5148 51.4367 64.9068 51.67C65.2988 51.894 65.7328 52.006 66.2088 52.006C66.6848 52.006 67.1188 51.894 67.5108 51.67C67.9122 51.4367 68.2295 51.1053 68.4628 50.676C68.6962 50.2373 68.8128 49.7287 68.8128 49.15ZM73.8078 46.378V50.9C73.8078 51.2733 73.8871 51.5393 74.0458 51.698C74.2044 51.8473 74.4798 51.922 74.8718 51.922H75.8098V53H74.6618C73.9524 53 73.4204 52.8367 73.0658 52.51C72.7111 52.1833 72.5338 51.6467 72.5338 50.9V46.378H71.5398V45.328H72.5338V43.396H73.8078V45.328H75.8098V46.378H73.8078ZM76.8774 49.136C76.8774 48.352 77.0361 47.666 77.3534 47.078C77.6707 46.4807 78.1047 46.0187 78.6554 45.692C79.2154 45.3653 79.8361 45.202 80.5174 45.202C81.1894 45.202 81.7727 45.3467 82.2674 45.636C82.7621 45.9253 83.1307 46.2893 83.3734 46.728V45.328H84.6614V53H83.3734V51.572C83.1214 52.02 82.7434 52.3933 82.2394 52.692C81.7447 52.9813 81.1661 53.126 80.5034 53.126C79.8221 53.126 79.2061 52.958 78.6554 52.622C78.1047 52.286 77.6707 51.8147 77.3534 51.208C77.0361 50.6013 76.8774 49.9107 76.8774 49.136ZM83.3734 49.15C83.3734 48.5713 83.2567 48.0673 83.0234 47.638C82.7901 47.2087 82.4727 46.882 82.0714 46.658C81.6794 46.4247 81.2454 46.308 80.7694 46.308C80.2934 46.308 79.8594 46.42 79.4674 46.644C79.0754 46.868 78.7627 47.1947 78.5294 47.624C78.2961 48.0533 78.1794 48.5573 78.1794 49.136C78.1794 49.724 78.2961 50.2373 78.5294 50.676C78.7627 51.1053 79.0754 51.4367 79.4674 51.67C79.8594 51.894 80.2934 52.006 80.7694 52.006C81.2454 52.006 81.6794 51.894 82.0714 51.67C82.4727 51.4367 82.7901 51.1053 83.0234 50.676C83.2567 50.2373 83.3734 49.7287 83.3734 49.15ZM89.9363 46.378H88.3263V53H87.0523V46.378H86.0583V45.328H87.0523V44.782C87.0523 43.9233 87.2717 43.298 87.7103 42.906C88.1583 42.5047 88.8723 42.304 89.8523 42.304V43.368C89.2923 43.368 88.8957 43.48 88.6623 43.704C88.4383 43.9187 88.3263 44.278 88.3263 44.782V45.328H89.9363V46.378ZM94.7678 53.126C94.0491 53.126 93.3958 52.9627 92.8078 52.636C92.2291 52.3093 91.7718 51.8473 91.4358 51.25C91.1091 50.6433 90.9458 49.9433 90.9458 49.15C90.9458 48.366 91.1138 47.6753 91.4498 47.078C91.7951 46.4713 92.2618 46.0093 92.8498 45.692C93.4378 45.3653 94.0958 45.202 94.8238 45.202C95.5518 45.202 96.2098 45.3653 96.7978 45.692C97.3858 46.0093 97.8478 46.4667 98.1838 47.064C98.5291 47.6613 98.7018 48.3567 98.7018 49.15C98.7018 49.9433 98.5244 50.6433 98.1698 51.25C97.8244 51.8473 97.3531 52.3093 96.7558 52.636C96.1584 52.9627 95.4958 53.126 94.7678 53.126ZM94.7678 52.006C95.2251 52.006 95.6544 51.8987 96.0558 51.684C96.4571 51.4693 96.7791 51.1473 97.0218 50.718C97.2738 50.2887 97.3998 49.766 97.3998 49.15C97.3998 48.534 97.2784 48.0113 97.0358 47.582C96.7931 47.1527 96.4758 46.8353 96.0838 46.63C95.6918 46.4153 95.2671 46.308 94.8098 46.308C94.3431 46.308 93.9138 46.4153 93.5218 46.63C93.1391 46.8353 92.8311 47.1527 92.5978 47.582C92.3644 48.0113 92.2478 48.534 92.2478 49.15C92.2478 49.7753 92.3598 50.3027 92.5838 50.732C92.8171 51.1613 93.1251 51.4833 93.5078 51.698C93.8904 51.9033 94.3104 52.006 94.7678 52.006ZM101.651 46.574C101.875 46.1353 102.192 45.7947 102.603 45.552C103.023 45.3093 103.531 45.188 104.129 45.188V46.504H103.793C102.365 46.504 101.651 47.2787 101.651 48.828V53H100.377V45.328H101.651V46.574ZM114.825 45.188C115.423 45.188 115.955 45.314 116.421 45.566C116.888 45.8087 117.257 46.1773 117.527 46.672C117.798 47.1667 117.933 47.7687 117.933 48.478V53H116.673V48.66C116.673 47.8947 116.482 47.3113 116.099 46.91C115.726 46.4993 115.217 46.294 114.573 46.294C113.911 46.294 113.383 46.5087 112.991 46.938C112.599 47.358 112.403 47.9693 112.403 48.772V53H111.143V48.66C111.143 47.8947 110.952 47.3113 110.569 46.91C110.196 46.4993 109.687 46.294 109.043 46.294C108.381 46.294 107.853 46.5087 107.461 46.938C107.069 47.358 106.873 47.9693 106.873 48.772V53H105.599V45.328H106.873V46.434C107.125 46.0327 107.461 45.7247 107.881 45.51C108.311 45.2953 108.782 45.188 109.295 45.188C109.939 45.188 110.509 45.3327 111.003 45.622C111.498 45.9113 111.867 46.336 112.109 46.896C112.324 46.3547 112.679 45.9347 113.173 45.636C113.668 45.3373 114.219 45.188 114.825 45.188ZM119.547 49.136C119.547 48.352 119.706 47.666 120.023 47.078C120.341 46.4807 120.775 46.0187 121.325 45.692C121.885 45.3653 122.506 45.202 123.187 45.202C123.859 45.202 124.443 45.3467 124.937 45.636C125.432 45.9253 125.801 46.2893 126.043 46.728V45.328H127.331V53H126.043V51.572C125.791 52.02 125.413 52.3933 124.909 52.692C124.415 52.9813 123.836 53.126 123.173 53.126C122.492 53.126 121.876 52.958 121.325 52.622C120.775 52.286 120.341 51.8147 120.023 51.208C119.706 50.6013 119.547 49.9107 119.547 49.136ZM126.043 49.15C126.043 48.5713 125.927 48.0673 125.693 47.638C125.46 47.2087 125.143 46.882 124.741 46.658C124.349 46.4247 123.915 46.308 123.439 46.308C122.963 46.308 122.529 46.42 122.137 46.644C121.745 46.868 121.433 47.1947 121.199 47.624C120.966 48.0533 120.849 48.5573 120.849 49.136C120.849 49.724 120.966 50.2373 121.199 50.676C121.433 51.1053 121.745 51.4367 122.137 51.67C122.529 51.894 122.963 52.006 123.439 52.006C123.915 52.006 124.349 51.894 124.741 51.67C125.143 51.4367 125.46 51.1053 125.693 50.676C125.927 50.2373 126.043 49.7287 126.043 49.15ZM0.602 70.136C0.602 69.352 0.760667 68.666 1.078 68.078C1.39533 67.4807 1.82933 67.0187 2.38 66.692C2.94 66.3653 3.56533 66.202 4.256 66.202C4.85333 66.202 5.40867 66.342 5.922 66.622C6.43533 66.8927 6.82733 67.252 7.098 67.7V63.64H8.386V74H7.098V72.558C6.846 73.0153 6.47267 73.3933 5.978 73.692C5.48333 73.9813 4.90467 74.126 4.242 74.126C3.56067 74.126 2.94 73.958 2.38 73.622C1.82933 73.286 1.39533 72.8147 1.078 72.208C0.760667 71.6013 0.602 70.9107 0.602 70.136ZM7.098 70.15C7.098 69.5713 6.98133 69.0673 6.748 68.638C6.51467 68.2087 6.19733 67.882 5.796 67.658C5.404 67.4247 4.97 67.308 4.494 67.308C4.018 67.308 3.584 67.42 3.192 67.644C2.8 67.868 2.48733 68.1947 2.254 68.624C2.02067 69.0533 1.904 69.5573 1.904 70.136C1.904 70.724 2.02067 71.2373 2.254 71.676C2.48733 72.1053 2.8 72.4367 3.192 72.67C3.584 72.894 4.018 73.006 4.494 73.006C4.97 73.006 5.404 72.894 5.796 72.67C6.19733 72.4367 6.51467 72.1053 6.748 71.676C6.98133 71.2373 7.098 70.7287 7.098 70.15ZM13.8849 74.126C13.1663 74.126 12.5129 73.9627 11.9249 73.636C11.3463 73.3093 10.8889 72.8473 10.5529 72.25C10.2263 71.6433 10.0629 70.9433 10.0629 70.15C10.0629 69.366 10.2309 68.6753 10.5669 68.078C10.9123 67.4713 11.3789 67.0093 11.9669 66.692C12.5549 66.3653 13.2129 66.202 13.9409 66.202C14.6689 66.202 15.3269 66.3653 15.9149 66.692C16.5029 67.0093 16.9649 67.4667 17.3009 68.064C17.6463 68.6613 17.8189 69.3567 17.8189 70.15C17.8189 70.9433 17.6416 71.6433 17.2869 72.25C16.9416 72.8473 16.4703 73.3093 15.8729 73.636C15.2756 73.9627 14.6129 74.126 13.8849 74.126ZM13.8849 73.006C14.3423 73.006 14.7716 72.8987 15.1729 72.684C15.5743 72.4693 15.8963 72.1473 16.1389 71.718C16.3909 71.2887 16.5169 70.766 16.5169 70.15C16.5169 69.534 16.3956 69.0113 16.1529 68.582C15.9103 68.1527 15.5929 67.8353 15.2009 67.63C14.8089 67.4153 14.3843 67.308 13.9269 67.308C13.4603 67.308 13.0309 67.4153 12.6389 67.63C12.2563 67.8353 11.9483 68.1527 11.7149 68.582C11.4816 69.0113 11.3649 69.534 11.3649 70.15C11.3649 70.7753 11.4769 71.3027 11.7009 71.732C11.9343 72.1613 12.2423 72.4833 12.6249 72.698C13.0076 72.9033 13.4276 73.006 13.8849 73.006ZM30.6184 67.07C30.3478 66.5007 29.9558 66.062 29.4424 65.754C28.9291 65.4367 28.3318 65.278 27.6504 65.278C26.9691 65.278 26.3531 65.4367 25.8024 65.754C25.2611 66.062 24.8318 66.51 24.5144 67.098C24.2064 67.6767 24.0524 68.3487 24.0524 69.114C24.0524 69.8793 24.2064 70.5513 24.5144 71.13C24.8318 71.7087 25.2611 72.1567 25.8024 72.474C26.3531 72.782 26.9691 72.936 27.6504 72.936C28.6024 72.936 29.3864 72.6513 30.0024 72.082C30.6184 71.5127 30.9778 70.7427 31.0804 69.772H27.1884V68.736H32.4384V69.716C32.3638 70.5187 32.1118 71.256 31.6824 71.928C31.2531 72.5907 30.6884 73.118 29.9884 73.51C29.2884 73.8927 28.5091 74.084 27.6504 74.084C26.7451 74.084 25.9191 73.874 25.1724 73.454C24.4258 73.0247 23.8331 72.432 23.3944 71.676C22.9651 70.92 22.7504 70.066 22.7504 69.114C22.7504 68.162 22.9651 67.308 23.3944 66.552C23.8331 65.7867 24.4258 65.194 25.1724 64.774C25.9191 64.3447 26.7451 64.13 27.6504 64.13C28.6864 64.13 29.6011 64.3867 30.3944 64.9C31.1971 65.4133 31.7804 66.1367 32.1444 67.07H30.6184ZM37.4689 74.126C36.7503 74.126 36.0969 73.9627 35.5089 73.636C34.9303 73.3093 34.4729 72.8473 34.1369 72.25C33.8103 71.6433 33.6469 70.9433 33.6469 70.15C33.6469 69.366 33.8149 68.6753 34.1509 68.078C34.4963 67.4713 34.9629 67.0093 35.5509 66.692C36.1389 66.3653 36.7969 66.202 37.5249 66.202C38.2529 66.202 38.9109 66.3653 39.4989 66.692C40.0869 67.0093 40.5489 67.4667 40.8849 68.064C41.2303 68.6613 41.4029 69.3567 41.4029 70.15C41.4029 70.9433 41.2256 71.6433 40.8709 72.25C40.5256 72.8473 40.0543 73.3093 39.4569 73.636C38.8596 73.9627 38.1969 74.126 37.4689 74.126ZM37.4689 73.006C37.9263 73.006 38.3556 72.8987 38.7569 72.684C39.1583 72.4693 39.4803 72.1473 39.7229 71.718C39.9749 71.2887 40.1009 70.766 40.1009 70.15C40.1009 69.534 39.9796 69.0113 39.7369 68.582C39.4943 68.1527 39.1769 67.8353 38.7849 67.63C38.3929 67.4153 37.9683 67.308 37.5109 67.308C37.0443 67.308 36.6149 67.4153 36.2229 67.63C35.8403 67.8353 35.5323 68.1527 35.2989 68.582C35.0656 69.0113 34.9489 69.534 34.9489 70.15C34.9489 70.7753 35.0609 71.3027 35.2849 71.732C35.5183 72.1613 35.8263 72.4833 36.2089 72.698C36.5916 72.9033 37.0116 73.006 37.4689 73.006ZM46.424 74.126C45.7053 74.126 45.052 73.9627 44.464 73.636C43.8853 73.3093 43.428 72.8473 43.092 72.25C42.7653 71.6433 42.602 70.9433 42.602 70.15C42.602 69.366 42.77 68.6753 43.106 68.078C43.4513 67.4713 43.918 67.0093 44.506 66.692C45.094 66.3653 45.752 66.202 46.48 66.202C47.208 66.202 47.866 66.3653 48.454 66.692C49.042 67.0093 49.504 67.4667 49.84 68.064C50.1853 68.6613 50.358 69.3567 50.358 70.15C50.358 70.9433 50.1807 71.6433 49.826 72.25C49.4807 72.8473 49.0093 73.3093 48.412 73.636C47.8147 73.9627 47.152 74.126 46.424 74.126ZM46.424 73.006C46.8813 73.006 47.3107 72.8987 47.712 72.684C48.1133 72.4693 48.4353 72.1473 48.678 71.718C48.93 71.2887 49.056 70.766 49.056 70.15C49.056 69.534 48.9347 69.0113 48.692 68.582C48.4493 68.1527 48.132 67.8353 47.74 67.63C47.348 67.4153 46.9233 67.308 46.466 67.308C45.9993 67.308 45.57 67.4153 45.178 67.63C44.7953 67.8353 44.4873 68.1527 44.254 68.582C44.0207 69.0113 43.904 69.534 43.904 70.15C43.904 70.7753 44.016 71.3027 44.24 71.732C44.4733 72.1613 44.7813 72.4833 45.164 72.698C45.5467 72.9033 45.9667 73.006 46.424 73.006ZM55.1971 66.202C55.8597 66.202 56.4384 66.3467 56.9331 66.636C57.4371 66.9253 57.8104 67.2893 58.0531 67.728V66.328H59.3411V74.168C59.3411 74.868 59.1917 75.4887 58.8931 76.03C58.5944 76.5807 58.1651 77.01 57.6051 77.318C57.0544 77.626 56.4104 77.78 55.6731 77.78C54.6651 77.78 53.8251 77.542 53.1531 77.066C52.4811 76.59 52.0844 75.9413 51.9631 75.12H53.2231C53.3631 75.5867 53.6524 75.96 54.0911 76.24C54.5297 76.5293 55.0571 76.674 55.6731 76.674C56.3731 76.674 56.9424 76.4547 57.3811 76.016C57.8291 75.5773 58.0531 74.9613 58.0531 74.168V72.558C57.8011 73.006 57.4277 73.3793 56.9331 73.678C56.4384 73.9767 55.8597 74.126 55.1971 74.126C54.5157 74.126 53.8951 73.958 53.3351 73.622C52.7844 73.286 52.3504 72.8147 52.0331 72.208C51.7157 71.6013 51.5571 70.9107 51.5571 70.136C51.5571 69.352 51.7157 68.666 52.0331 68.078C52.3504 67.4807 52.7844 67.0187 53.3351 66.692C53.8951 66.3653 54.5157 66.202 55.1971 66.202ZM58.0531 70.15C58.0531 69.5713 57.9364 69.0673 57.7031 68.638C57.4697 68.2087 57.1524 67.882 56.7511 67.658C56.3591 67.4247 55.9251 67.308 55.4491 67.308C54.9731 67.308 54.5391 67.42 54.1471 67.644C53.7551 67.868 53.4424 68.1947 53.2091 68.624C52.9757 69.0533 52.8591 69.5573 52.8591 70.136C52.8591 70.724 52.9757 71.2373 53.2091 71.676C53.4424 72.1053 53.7551 72.4367 54.1471 72.67C54.5391 72.894 54.9731 73.006 55.4491 73.006C55.9251 73.006 56.3591 72.894 56.7511 72.67C57.1524 72.4367 57.4697 72.1053 57.7031 71.676C57.9364 71.2373 58.0531 70.7287 58.0531 70.15ZM62.768 63.64V74H61.494V63.64H62.768ZM71.9393 69.87C71.9393 70.1127 71.9253 70.3693 71.8973 70.64H65.7653C65.812 71.396 66.0687 71.9887 66.5353 72.418C67.0113 72.838 67.5853 73.048 68.2573 73.048C68.808 73.048 69.2653 72.922 69.6293 72.67C70.0027 72.4087 70.264 72.0633 70.4133 71.634H71.7853C71.58 72.3713 71.1693 72.9733 70.5533 73.44C69.9373 73.8973 69.172 74.126 68.2573 74.126C67.5293 74.126 66.876 73.9627 66.2973 73.636C65.728 73.3093 65.28 72.8473 64.9533 72.25C64.6267 71.6433 64.4633 70.9433 64.4633 70.15C64.4633 69.3567 64.622 68.6613 64.9393 68.064C65.2567 67.4667 65.7 67.0093 66.2693 66.692C66.848 66.3653 67.5107 66.202 68.2573 66.202C68.9853 66.202 69.6293 66.3607 70.1893 66.678C70.7493 66.9953 71.1787 67.434 71.4773 67.994C71.7853 68.5447 71.9393 69.17 71.9393 69.87ZM70.6233 69.604C70.6233 69.1187 70.516 68.7033 70.3013 68.358C70.0867 68.0033 69.7927 67.7373 69.4193 67.56C69.0553 67.3733 68.6493 67.28 68.2013 67.28C67.5573 67.28 67.0067 67.4853 66.5493 67.896C66.1013 68.3067 65.8447 68.876 65.7793 69.604H70.6233ZM74.027 74.084C73.7843 74.084 73.579 74 73.411 73.832C73.243 73.664 73.159 73.4587 73.159 73.216C73.159 72.9733 73.243 72.768 73.411 72.6C73.579 72.432 73.7843 72.348 74.027 72.348C74.2603 72.348 74.4563 72.432 74.615 72.6C74.783 72.768 74.867 72.9733 74.867 73.216C74.867 73.4587 74.783 73.664 74.615 73.832C74.4563 74 74.2603 74.084 74.027 74.084Z" fill="black" fill-opacity="0.85"/>
</svg>
